<svg xmlns="http://www.w3.org/2000/svg" xmlns:xlink="http://www.w3.org/1999/xlink" contentStyleType="text/css" data-diagram-type="CLASS" height="941px" preserveAspectRatio="none" style="width:2163px;height:941px;background:#FFFFFF;" version="1.1" viewBox="0 0 2163 941" width="2163px" zoomAndPan="magnify"><defs/><g><rect fill="#FFFFCC" height="26.6406" rx="2.5" ry="2.5" style="stroke:#FFDD88;stroke-width:3;" width="2152.0293" x="5" y="5"/><text fill="#000000" font-family="monospace" font-size="10" lengthAdjust="spacing" textLength="355.21" x="10" y="20">Please&#160;use&#160;'!option&#160;handwritten&#160;true'&#160;to&#160;enable&#160;handwritten</text><!--cluster src--><g class="cluster" data-entity="src" data-source-line="39" data-uid="ent0004" id="cluster_src"><rect fill="none" height="892" rx="7.5" ry="7.5" style="stroke:#000000;stroke-width:1.5;" width="1963" x="7" y="43.6406"/><text fill="#000000" font-family="'Segoe UI'" font-size="14" font-weight="bold" lengthAdjust="spacing" textLength="23.5361" x="976.7319" y="58.6357">src</text></g><!--cluster ui--><g class="cluster" data-entity="ui" data-source-line="36" data-uid="ent0002" id="cluster_ui"><rect fill="#EBF5FB" height="394.5" rx="7.5" ry="7.5" style="stroke:#000000;stroke-width:1.5;" width="692" x="31" y="86.6406"/><text fill="#000000" font-family="'Segoe UI'" font-size="14" font-weight="bold" lengthAdjust="spacing" textLength="14.7656" x="369.6172" y="101.6357">ui</text></g><!--cluster core--><g class="cluster" data-entity="core" data-source-line="71" data-uid="ent0008" id="cluster_core"><rect fill="#E9F7EF" height="607" rx="7.5" ry="7.5" style="stroke:#000000;stroke-width:1.5;" width="544" x="747" y="304.6406"/><text fill="#000000" font-family="'Segoe UI'" font-size="14" font-weight="bold" lengthAdjust="spacing" textLength="34.3164" x="1001.8418" y="319.6357">core</text></g><!--cluster models--><g class="cluster" data-entity="models" data-source-line="121" data-uid="ent0016" id="cluster_models"><rect fill="#F4ECF7" height="164" rx="7.5" ry="7.5" style="stroke:#000000;stroke-width:1.5;" width="317" x="838" y="723.6406"/><text fill="#000000" font-family="'Segoe UI'" font-size="14" font-weight="bold" lengthAdjust="spacing" textLength="56.8545" x="968.0728" y="738.6357">models</text></g><!--cluster services--><g class="cluster" data-entity="services" data-source-line="99" data-uid="ent0012" id="cluster_services"><rect fill="#FEF9E7" height="148" rx="7.5" ry="7.5" style="stroke:#000000;stroke-width:1.5;" width="627" x="1319" y="538.6406"/><text fill="#000000" font-family="'Segoe UI'" font-size="14" font-weight="bold" lengthAdjust="spacing" textLength="64.7842" x="1600.1079" y="553.6357">services</text></g><!--class QRGeneratorView--><g class="entity" data-entity="QRGeneratorView" data-source-line="39" data-uid="ent0003" id="entity_QRGeneratorView"><rect fill="#FFFFFF" height="137.75" rx="7.5" ry="7.5" style="stroke:#2C3E50;stroke-width:0.5;" width="268.3613" x="439" y="121.6406"/><rect fill="#ECF0F1" height="40.2656" rx="7.5" ry="7.5" style="stroke:#ECF0F1;stroke-width:0.5;" width="268.3613" x="439" y="121.6406"/><rect fill="#ECF0F1" height="7.5" style="stroke:#ECF0F1;stroke-width:0.5;" width="268.3613" x="439" y="154.4063"/><rect fill="none" height="137.75" rx="7.5" ry="7.5" style="stroke:#2C3E50;stroke-width:0.5;" width="268.3613" x="439" y="121.6406"/><ellipse cx="506.2451" cy="141.7734" fill="#ADD1B2" rx="11" ry="11" style="stroke:#181818;stroke-width:1;"/><path d="M509.2139,147.4141 Q508.6357,147.7109 507.9951,147.8516 Q507.3545,148.0078 506.6514,148.0078 Q504.1514,148.0078 502.8232,146.3672 Q501.5107,144.7109 501.5107,141.5859 Q501.5107,138.4609 502.8232,136.8047 Q504.1514,135.1484 506.6514,135.1484 Q507.3545,135.1484 507.9951,135.3047 Q508.6514,135.4609 509.2139,135.7578 L509.2139,138.4766 Q508.5889,137.8984 507.9951,137.6328 Q507.4014,137.3516 506.7764,137.3516 Q505.4326,137.3516 504.7451,138.4297 Q504.0576,139.4922 504.0576,141.5859 Q504.0576,143.6797 504.7451,144.7578 Q505.4326,145.8203 506.7764,145.8203 Q507.4014,145.8203 507.9951,145.5547 Q508.5889,145.2734 509.2139,144.6953 L509.2139,147.4141 Z " fill="#000000"/><text fill="#000000" font-family="Segoe UI" font-size="12" font-style="italic" lengthAdjust="spacing" textLength="27.1348" x="575.8633" y="137.7793">&#171;UI&#187;</text><text fill="#000000" font-family="'Segoe UI'" font-size="14" lengthAdjust="spacing" textLength="125.3711" x="526.7451" y="153.6045">QRGeneratorView</text><line style="stroke:#2C3E50;stroke-width:0.5;" x1="440" x2="706.3613" y1="161.9063" y2="161.9063"/><text fill="#000000" font-family="'Segoe UI'" font-size="14" font-weight="bold" lengthAdjust="spacing" textLength="140.7588" x="445" y="178.9014">QRGeneratorView</text><line style="stroke:#2C3E50;stroke-width:1;" x1="440" x2="706.3613" y1="186.2031" y2="186.2031"/><text fill="#000000" font-family="'Segoe UI'" font-size="14" lengthAdjust="spacing" textLength="256.3613" x="445" y="203.1982">+__init__(controller, settingsService)</text><text fill="#000000" font-family="'Segoe UI'" font-size="14" lengthAdjust="spacing" textLength="170.6387" x="445" y="219.4951">+updatePreview(image)</text><text fill="#000000" font-family="'Segoe UI'" font-size="14" lengthAdjust="spacing" textLength="150.4521" x="445" y="235.792">+getInputData(): dict</text><text fill="#000000" font-family="'Segoe UI'" font-size="14" lengthAdjust="spacing" textLength="179.5117" x="445" y="252.0889">+updateStatus(message)</text></g><!--class InputPanel--><g class="entity" data-entity="InputPanel" data-source-line="48" data-uid="ent0005" id="entity_InputPanel"><rect fill="#FFFFFF" height="105.1563" rx="7.5" ry="7.5" style="stroke:#2C3E50;stroke-width:0.5;" width="126.2012" x="47" y="360.1406"/><rect fill="#ECF0F1" height="40.2656" rx="7.5" ry="7.5" style="stroke:#ECF0F1;stroke-width:0.5;" width="126.2012" x="47" y="360.1406"/><rect fill="#ECF0F1" height="7.5" style="stroke:#ECF0F1;stroke-width:0.5;" width="126.2012" x="47" y="392.9063"/><rect fill="none" height="105.1563" rx="7.5" ry="7.5" style="stroke:#2C3E50;stroke-width:0.5;" width="126.2012" x="47" y="360.1406"/><ellipse cx="70.7987" cy="380.2734" fill="#ADD1B2" rx="11" ry="11" style="stroke:#181818;stroke-width:1;"/><path d="M73.7675,385.9141 Q73.1894,386.2109 72.5487,386.3516 Q71.9081,386.5078 71.205,386.5078 Q68.705,386.5078 67.3769,384.8672 Q66.0644,383.2109 66.0644,380.0859 Q66.0644,376.9609 67.3769,375.3047 Q68.705,373.6484 71.205,373.6484 Q71.9081,373.6484 72.5487,373.8047 Q73.205,373.9609 73.7675,374.2578 L73.7675,376.9766 Q73.1425,376.3984 72.5487,376.1328 Q71.955,375.8516 71.33,375.8516 Q69.9862,375.8516 69.2987,376.9297 Q68.6112,377.9922 68.6112,380.0859 Q68.6112,382.1797 69.2987,383.2578 Q69.9862,384.3203 71.33,384.3203 Q71.955,384.3203 72.5487,384.0547 Q73.1425,383.7734 73.7675,383.1953 L73.7675,385.9141 Z " fill="#000000"/><text fill="#000000" font-family="Segoe UI" font-size="12" font-style="italic" lengthAdjust="spacing" textLength="27.1348" x="110.5108" y="376.2793">&#171;UI&#187;</text><text fill="#000000" font-family="'Segoe UI'" font-size="14" lengthAdjust="spacing" textLength="74.6484" x="86.754" y="392.1045">InputPanel</text><line style="stroke:#2C3E50;stroke-width:0.5;" x1="48" x2="172.2012" y1="400.4063" y2="400.4063"/><text fill="#000000" font-family="'Segoe UI'" font-size="14" font-weight="bold" lengthAdjust="spacing" textLength="85.8252" x="53" y="417.4014">InputPanel</text><line style="stroke:#2C3E50;stroke-width:1;" x1="48" x2="172.2012" y1="424.7031" y2="424.7031"/><text fill="#000000" font-family="'Segoe UI'" font-size="14" lengthAdjust="spacing" textLength="114.2012" x="53" y="441.6982">+getData(): dict</text><text fill="#000000" font-family="'Segoe UI'" font-size="14" lengthAdjust="spacing" textLength="57.1895" x="53" y="457.9951">+clear()</text></g><!--class SettingsPanel--><g class="entity" data-entity="SettingsPanel" data-source-line="55" data-uid="ent0006" id="entity_SettingsPanel"><rect fill="#FFFFFF" height="105.1563" rx="7.5" ry="7.5" style="stroke:#2C3E50;stroke-width:0.5;" width="242.0771" x="233" y="360.1406"/><rect fill="#ECF0F1" height="40.2656" rx="7.5" ry="7.5" style="stroke:#ECF0F1;stroke-width:0.5;" width="242.0771" x="233" y="360.1406"/><rect fill="#ECF0F1" height="7.5" style="stroke:#ECF0F1;stroke-width:0.5;" width="242.0771" x="233" y="392.9063"/><rect fill="none" height="105.1563" rx="7.5" ry="7.5" style="stroke:#2C3E50;stroke-width:0.5;" width="242.0771" x="233" y="360.1406"/><ellipse cx="301.8789" cy="380.2734" fill="#ADD1B2" rx="11" ry="11" style="stroke:#181818;stroke-width:1;"/><path d="M304.8477,385.9141 Q304.2695,386.2109 303.6289,386.3516 Q302.9883,386.5078 302.2852,386.5078 Q299.7852,386.5078 298.457,384.8672 Q297.1445,383.2109 297.1445,380.0859 Q297.1445,376.9609 298.457,375.3047 Q299.7852,373.6484 302.2852,373.6484 Q302.9883,373.6484 303.6289,373.8047 Q304.2852,373.9609 304.8477,374.2578 L304.8477,376.9766 Q304.2227,376.3984 303.6289,376.1328 Q303.0352,375.8516 302.4102,375.8516 Q301.0664,375.8516 300.3789,376.9297 Q299.6914,377.9922 299.6914,380.0859 Q299.6914,382.1797 300.3789,383.2578 Q301.0664,384.3203 302.4102,384.3203 Q303.0352,384.3203 303.6289,384.0547 Q304.2227,383.7734 304.8477,383.1953 L304.8477,385.9141 Z " fill="#000000"/><text fill="#000000" font-family="Segoe UI" font-size="12" font-style="italic" lengthAdjust="spacing" textLength="27.1348" x="356.7212" y="376.2793">&#171;UI&#187;</text><text fill="#000000" font-family="'Segoe UI'" font-size="14" lengthAdjust="spacing" textLength="95.8193" x="322.3789" y="392.1045">SettingsPanel</text><line style="stroke:#2C3E50;stroke-width:0.5;" x1="234" x2="474.0771" y1="400.4063" y2="400.4063"/><text fill="#000000" font-family="'Segoe UI'" font-size="14" font-weight="bold" lengthAdjust="spacing" textLength="110.0518" x="239" y="417.4014">SettingsPanel</text><line style="stroke:#2C3E50;stroke-width:1;" x1="234" x2="474.0771" y1="424.7031" y2="424.7031"/><text fill="#000000" font-family="'Segoe UI'" font-size="14" lengthAdjust="spacing" textLength="138.1953" x="239" y="441.6982">+getSettings(): dict</text><text fill="#000000" font-family="'Segoe UI'" font-size="14" lengthAdjust="spacing" textLength="230.0771" x="239" y="457.9951">+updateColorButton(type, color)</text></g><!--class PreviewPanel--><g class="entity" data-entity="PreviewPanel" data-source-line="62" data-uid="ent0007" id="entity_PreviewPanel"><rect fill="#FFFFFF" height="105.1563" rx="7.5" ry="7.5" style="stroke:#2C3E50;stroke-width:0.5;" width="171.4346" x="535.5" y="360.1406"/><rect fill="#ECF0F1" height="40.2656" rx="7.5" ry="7.5" style="stroke:#ECF0F1;stroke-width:0.5;" width="171.4346" x="535.5" y="360.1406"/><rect fill="#ECF0F1" height="7.5" style="stroke:#ECF0F1;stroke-width:0.5;" width="171.4346" x="535.5" y="392.9063"/><rect fill="none" height="105.1563" rx="7.5" ry="7.5" style="stroke:#2C3E50;stroke-width:0.5;" width="171.4346" x="535.5" y="360.1406"/><ellipse cx="571.1943" cy="380.2734" fill="#ADD1B2" rx="11" ry="11" style="stroke:#181818;stroke-width:1;"/><path d="M574.163,385.9141 Q573.5849,386.2109 572.9443,386.3516 Q572.3037,386.5078 571.6005,386.5078 Q569.1005,386.5078 567.7724,384.8672 Q566.4599,383.2109 566.4599,380.0859 Q566.4599,376.9609 567.7724,375.3047 Q569.1005,373.6484 571.6005,373.6484 Q572.3037,373.6484 572.9443,373.8047 Q573.6005,373.9609 574.163,374.2578 L574.163,376.9766 Q573.538,376.3984 572.9443,376.1328 Q572.3505,375.8516 571.7255,375.8516 Q570.3818,375.8516 569.6943,376.9297 Q569.0068,377.9922 569.0068,380.0859 Q569.0068,382.1797 569.6943,383.2578 Q570.3818,384.3203 571.7255,384.3203 Q572.3505,384.3203 572.9443,384.0547 Q573.538,383.7734 574.163,383.1953 L574.163,385.9141 Z " fill="#000000"/><text fill="#000000" font-family="Segoe UI" font-size="12" font-style="italic" lengthAdjust="spacing" textLength="27.1348" x="622.9493" y="376.2793">&#171;UI&#187;</text><text fill="#000000" font-family="'Segoe UI'" font-size="14" lengthAdjust="spacing" textLength="93.4473" x="589.793" y="392.1045">PreviewPanel</text><line style="stroke:#2C3E50;stroke-width:0.5;" x1="536.5" x2="705.9346" y1="400.4063" y2="400.4063"/><text fill="#000000" font-family="'Segoe UI'" font-size="14" font-weight="bold" lengthAdjust="spacing" textLength="106.9824" x="541.5" y="417.4014">PreviewPanel</text><line style="stroke:#2C3E50;stroke-width:1;" x1="536.5" x2="705.9346" y1="424.7031" y2="424.7031"/><text fill="#000000" font-family="'Segoe UI'" font-size="14" lengthAdjust="spacing" textLength="159.4346" x="541.5" y="441.6982">+updateImage(image)</text><text fill="#000000" font-family="'Segoe UI'" font-size="14" lengthAdjust="spacing" textLength="114.3174" x="541.5" y="457.9951">+showLoading()</text></g><!--class QRGeneratorController--><g class="entity" data-entity="QRGeneratorController" data-source-line="72" data-uid="ent0009" id="entity_QRGeneratorController"><rect fill="#FFFFFF" height="145.7813" rx="7.5" ry="7.5" style="stroke:#2C3E50;stroke-width:0.5;" width="244.8594" x="1029.5" y="339.6406"/><rect fill="#ECF0F1" height="32" rx="7.5" ry="7.5" style="stroke:#ECF0F1;stroke-width:0.5;" width="244.8594" x="1029.5" y="339.6406"/><rect fill="#ECF0F1" height="7.5" style="stroke:#ECF0F1;stroke-width:0.5;" width="244.8594" x="1029.5" y="364.1406"/><rect fill="none" height="145.7813" rx="7.5" ry="7.5" style="stroke:#2C3E50;stroke-width:0.5;" width="244.8594" x="1029.5" y="339.6406"/><ellipse cx="1067.8306" cy="355.6406" fill="#ADD1B2" rx="11" ry="11" style="stroke:#181818;stroke-width:1;"/><path d="M1070.7993,361.2813 Q1070.2212,361.5781 1069.5806,361.7188 Q1068.9399,361.875 1068.2368,361.875 Q1065.7368,361.875 1064.4087,360.2344 Q1063.0962,358.5781 1063.0962,355.4531 Q1063.0962,352.3281 1064.4087,350.6719 Q1065.7368,349.0156 1068.2368,349.0156 Q1068.9399,349.0156 1069.5806,349.1719 Q1070.2368,349.3281 1070.7993,349.625 L1070.7993,352.3438 Q1070.1743,351.7656 1069.5806,351.5 Q1068.9868,351.2188 1068.3618,351.2188 Q1067.0181,351.2188 1066.3306,352.2969 Q1065.6431,353.3594 1065.6431,355.4531 Q1065.6431,357.5469 1066.3306,358.625 Q1067.0181,359.6875 1068.3618,359.6875 Q1068.9868,359.6875 1069.5806,359.4219 Q1070.1743,359.1406 1070.7993,358.5625 L1070.7993,361.2813 Z " fill="#000000"/><text fill="#000000" font-family="'Segoe UI'" font-size="14" lengthAdjust="spacing" textLength="161.0137" x="1087.0151" y="360.4873">QRGeneratorController</text><line style="stroke:#2C3E50;stroke-width:0.5;" x1="1030.5" x2="1273.3594" y1="371.6406" y2="371.6406"/><text fill="#000000" font-family="'Segoe UI'" font-size="14" font-weight="bold" lengthAdjust="spacing" textLength="181.7676" x="1035.5" y="388.6357">QRGeneratorController</text><line style="stroke:#2C3E50;stroke-width:1;" x1="1030.5" x2="1273.3594" y1="395.9375" y2="395.9375"/><text fill="#000000" font-family="'Segoe UI'" font-size="14" lengthAdjust="spacing" textLength="232.8594" x="1035.5" y="412.9326">+__init__(model, settingsService)</text><text fill="#000000" font-family="'Segoe UI'" font-size="14" lengthAdjust="spacing" textLength="102.8535" x="1035.5" y="429.2295">+generateQr()</text><text fill="#000000" font-family="'Segoe UI'" font-size="14" lengthAdjust="spacing" textLength="72.2012" x="1035.5" y="445.5264">+saveQr()</text><text fill="#000000" font-family="'Segoe UI'" font-size="14" lengthAdjust="spacing" textLength="140.3213" x="1035.5" y="461.8232">+copyToClipboard()</text><text fill="#000000" font-family="'Segoe UI'" font-size="14" lengthAdjust="spacing" textLength="186.0469" x="1035.5" y="478.1201">-_validateInput(data): bool</text></g><!--class QRGeneratorModel--><g class="entity" data-entity="QRGeneratorModel" data-source-line="82" data-uid="ent0010" id="entity_QRGeneratorModel"><rect fill="#FFFFFF" height="113.1875" rx="7.5" ry="7.5" style="stroke:#2C3E50;stroke-width:0.5;" width="194.54" x="825.5" y="565.6406"/><rect fill="#ECF0F1" height="32" rx="7.5" ry="7.5" style="stroke:#ECF0F1;stroke-width:0.5;" width="194.54" x="825.5" y="565.6406"/><rect fill="#ECF0F1" height="7.5" style="stroke:#ECF0F1;stroke-width:0.5;" width="194.54" x="825.5" y="590.1406"/><rect fill="none" height="113.1875" rx="7.5" ry="7.5" style="stroke:#2C3E50;stroke-width:0.5;" width="194.54" x="825.5" y="565.6406"/><ellipse cx="853.3993" cy="581.6406" fill="#ADD1B2" rx="11" ry="11" style="stroke:#181818;stroke-width:1;"/><path d="M856.368,587.2813 Q855.7899,587.5781 855.1493,587.7188 Q854.5086,587.875 853.8055,587.875 Q851.3055,587.875 849.9774,586.2344 Q848.6649,584.5781 848.6649,581.4531 Q848.6649,578.3281 849.9774,576.6719 Q851.3055,575.0156 853.8055,575.0156 Q854.5086,575.0156 855.1493,575.1719 Q855.8055,575.3281 856.368,575.625 L856.368,578.3438 Q855.743,577.7656 855.1493,577.5 Q854.5555,577.2188 853.9305,577.2188 Q852.5868,577.2188 851.8993,578.2969 Q851.2118,579.3594 851.2118,581.4531 Q851.2118,583.5469 851.8993,584.625 Q852.5868,585.6875 853.9305,585.6875 Q854.5555,585.6875 855.1493,585.4219 Q855.743,585.1406 856.368,584.5625 L856.368,587.2813 Z " fill="#000000"/><text fill="#000000" font-family="'Segoe UI'" font-size="14" lengthAdjust="spacing" textLength="133.875" x="870.2658" y="586.4873">QRGeneratorModel</text><line style="stroke:#2C3E50;stroke-width:0.5;" x1="826.5" x2="1019.04" y1="597.6406" y2="597.6406"/><text fill="#000000" font-family="'Segoe UI'" font-size="14" font-weight="bold" lengthAdjust="spacing" textLength="150.5615" x="831.5" y="614.6357">QRGeneratorModel</text><line style="stroke:#2C3E50;stroke-width:1;" x1="826.5" x2="1019.04" y1="621.9375" y2="621.9375"/><text fill="#000000" font-family="'Segoe UI'" font-size="14" lengthAdjust="spacing" textLength="182.54" x="831.5" y="638.9326">+currentConfig: QRConfig</text><text fill="#000000" font-family="'Segoe UI'" font-size="14" lengthAdjust="spacing" textLength="123.2314" x="831.5" y="655.2295">+qrImage: Image</text><text fill="#000000" font-family="'Segoe UI'" font-size="14" lengthAdjust="spacing" textLength="131.8105" x="831.5" y="671.5264">+setConfig(config)</text></g><!--class QRGenerator--><g class="entity" data-entity="QRGenerator" data-source-line="90" data-uid="ent0011" id="entity_QRGenerator"><rect fill="#FFFFFF" height="96.8906" rx="7.5" ry="7.5" style="stroke:#2C3E50;stroke-width:0.5;" width="193.9316" x="1081" y="573.6406"/><rect fill="#ECF0F1" height="32" rx="7.5" ry="7.5" style="stroke:#ECF0F1;stroke-width:0.5;" width="193.9316" x="1081" y="573.6406"/><rect fill="#ECF0F1" height="7.5" style="stroke:#ECF0F1;stroke-width:0.5;" width="193.9316" x="1081" y="598.1406"/><rect fill="none" height="96.8906" rx="7.5" ry="7.5" style="stroke:#2C3E50;stroke-width:0.5;" width="193.9316" x="1081" y="573.6406"/><ellipse cx="1127.7954" cy="589.6406" fill="#ADD1B2" rx="11" ry="11" style="stroke:#181818;stroke-width:1;"/><path d="M1130.7642,595.2813 Q1130.186,595.5781 1129.5454,595.7188 Q1128.9048,595.875 1128.2017,595.875 Q1125.7017,595.875 1124.3735,594.2344 Q1123.061,592.5781 1123.061,589.4531 Q1123.061,586.3281 1124.3735,584.6719 Q1125.7017,583.0156 1128.2017,583.0156 Q1128.9048,583.0156 1129.5454,583.1719 Q1130.2017,583.3281 1130.7642,583.625 L1130.7642,586.3438 Q1130.1392,585.7656 1129.5454,585.5 Q1128.9517,585.2188 1128.3267,585.2188 Q1126.9829,585.2188 1126.2954,586.2969 Q1125.6079,587.3594 1125.6079,589.4531 Q1125.6079,591.5469 1126.2954,592.625 Q1126.9829,593.6875 1128.3267,593.6875 Q1128.9517,593.6875 1129.5454,593.4219 Q1130.1392,593.1406 1130.7642,592.5625 L1130.7642,595.2813 Z " fill="#000000"/><text fill="#000000" font-family="'Segoe UI'" font-size="14" lengthAdjust="spacing" textLength="91.8408" x="1148.2954" y="594.4873">QRGenerator</text><line style="stroke:#2C3E50;stroke-width:0.5;" x1="1082" x2="1273.9316" y1="605.6406" y2="605.6406"/><text fill="#000000" font-family="'Segoe UI'" font-size="14" font-weight="bold" lengthAdjust="spacing" textLength="102.6963" x="1087" y="622.6357">QRGenerator</text><line style="stroke:#2C3E50;stroke-width:1;" x1="1082" x2="1273.9316" y1="629.9375" y2="629.9375"/><text fill="#000000" font-family="'Segoe UI'" font-size="14" lengthAdjust="spacing" text-decoration="underline" textLength="181.9316" x="1087" y="646.9326">+generate(config): Image</text><text fill="#000000" font-family="'Segoe UI'" font-size="14" lengthAdjust="spacing" text-decoration="underline" textLength="135.5771" x="1087" y="663.2295">-_get_drawer(style)</text></g><!--class QRConfig--><g class="entity" data-entity="QRConfig" data-source-line="122" data-uid="ent0017" id="entity_QRConfig"><rect fill="#FFFFFF" height="113.1875" rx="7.5" ry="7.5" style="stroke:#2C3E50;stroke-width:0.5;" width="136.9609" x="854.5" y="758.6406"/><rect fill="#ECF0F1" height="32" rx="7.5" ry="7.5" style="stroke:#ECF0F1;stroke-width:0.5;" width="136.9609" x="854.5" y="758.6406"/><rect fill="#ECF0F1" height="7.5" style="stroke:#ECF0F1;stroke-width:0.5;" width="136.9609" x="854.5" y="783.1406"/><rect fill="none" height="113.1875" rx="7.5" ry="7.5" style="stroke:#2C3E50;stroke-width:0.5;" width="136.9609" x="854.5" y="758.6406"/><ellipse cx="887.1827" cy="774.6406" fill="#ADD1B2" rx="11" ry="11" style="stroke:#181818;stroke-width:1;"/><path d="M890.1515,780.2813 Q889.5733,780.5781 888.9327,780.7188 Q888.2921,780.875 887.589,780.875 Q885.089,780.875 883.7608,779.2344 Q882.4483,777.5781 882.4483,774.4531 Q882.4483,771.3281 883.7608,769.6719 Q885.089,768.0156 887.589,768.0156 Q888.2921,768.0156 888.9327,768.1719 Q889.589,768.3281 890.1515,768.625 L890.1515,771.3438 Q889.5265,770.7656 888.9327,770.5 Q888.339,770.2188 887.714,770.2188 Q886.3702,770.2188 885.6827,771.2969 Q884.9952,772.3594 884.9952,774.4531 Q884.9952,776.5469 885.6827,777.625 Q886.3702,778.6875 887.714,778.6875 Q888.339,778.6875 888.9327,778.4219 Q889.5265,778.1406 890.1515,777.5625 L890.1515,780.2813 Z " fill="#000000"/><text fill="#000000" font-family="'Segoe UI'" font-size="14" lengthAdjust="spacing" textLength="65.666" x="905.1122" y="779.4873">QRConfig</text><line style="stroke:#2C3E50;stroke-width:0.5;" x1="855.5" x2="990.4609" y1="790.6406" y2="790.6406"/><text fill="#000000" font-family="'Segoe UI'" font-size="14" font-weight="bold" lengthAdjust="spacing" textLength="73.4521" x="860.5" y="807.6357">QRConfig</text><line style="stroke:#2C3E50;stroke-width:1;" x1="855.5" x2="990.4609" y1="814.9375" y2="814.9375"/><text fill="#000000" font-family="'Segoe UI'" font-size="14" lengthAdjust="spacing" textLength="93.0371" x="860.5" y="831.9326">+content: str</text><text fill="#000000" font-family="'Segoe UI'" font-size="14" lengthAdjust="spacing" textLength="124.9609" x="860.5" y="848.2295">+qrType: QRType</text><text fill="#000000" font-family="'Segoe UI'" font-size="14" lengthAdjust="spacing" textLength="110.3799" x="860.5" y="864.5264">+style: QRStyle</text></g><!--class QRType--><g class="entity" data-entity="QRType" data-source-line="130" data-uid="ent0018" id="entity_QRType"><rect fill="#FFFFFF" height="113.1875" rx="7.5" ry="7.5" style="stroke:#2C3E50;stroke-width:0.5;" width="87.084" x="1051.5" y="758.6406"/><rect fill="#ECF0F1" height="32" rx="7.5" ry="7.5" style="stroke:#ECF0F1;stroke-width:0.5;" width="87.084" x="1051.5" y="758.6406"/><rect fill="#ECF0F1" height="7.5" style="stroke:#ECF0F1;stroke-width:0.5;" width="87.084" x="1051.5" y="783.1406"/><rect fill="none" height="113.1875" rx="7.5" ry="7.5" style="stroke:#2C3E50;stroke-width:0.5;" width="87.084" x="1051.5" y="758.6406"/><ellipse cx="1066.5" cy="774.6406" fill="#EB937F" rx="11" ry="11" style="stroke:#181818;stroke-width:1;"/><path d="M1070.6094,780.6406 L1062.8906,780.6406 L1062.8906,768.25 L1070.6094,768.25 L1070.6094,770.4063 L1065.3438,770.4063 L1065.3438,773.0781 L1070.1094,773.0781 L1070.1094,775.2344 L1065.3438,775.2344 L1065.3438,778.4844 L1070.6094,778.4844 L1070.6094,780.6406 Z " fill="#000000"/><text fill="#000000" font-family="'Segoe UI'" font-size="14" lengthAdjust="spacing" textLength="55.084" x="1080.5" y="779.4873">QRType</text><line style="stroke:#2C3E50;stroke-width:0.5;" x1="1052.5" x2="1137.584" y1="790.6406" y2="790.6406"/><text fill="#000000" font-family="'Segoe UI'" font-size="14" lengthAdjust="spacing" textLength="35.54" x="1057.5" y="807.6357">TEXT</text><text fill="#000000" font-family="'Segoe UI'" font-size="14" lengthAdjust="spacing" textLength="27.7744" x="1057.5" y="823.9326">URL</text><text fill="#000000" font-family="'Segoe UI'" font-size="14" lengthAdjust="spacing" textLength="30.1533" x="1057.5" y="840.2295">WIFI</text><text fill="#000000" font-family="'Segoe UI'" font-size="14" lengthAdjust="spacing" textLength="42.4307" x="1057.5" y="856.5264">EMAIL</text><line style="stroke:#2C3E50;stroke-width:0.5;" x1="1052.5" x2="1137.584" y1="863.8281" y2="863.8281"/></g><!--class SettingsService--><g class="entity" data-entity="SettingsService" data-source-line="100" data-uid="ent0013" id="entity_SettingsService"><rect fill="#FFFFFF" height="96.8906" rx="7.5" ry="7.5" style="stroke:#2C3E50;stroke-width:0.5;" width="141.1631" x="1335.5" y="573.6406"/><rect fill="#ECF0F1" height="32" rx="7.5" ry="7.5" style="stroke:#ECF0F1;stroke-width:0.5;" width="141.1631" x="1335.5" y="573.6406"/><rect fill="#ECF0F1" height="7.5" style="stroke:#ECF0F1;stroke-width:0.5;" width="141.1631" x="1335.5" y="598.1406"/><rect fill="none" height="96.8906" rx="7.5" ry="7.5" style="stroke:#2C3E50;stroke-width:0.5;" width="141.1631" x="1335.5" y="573.6406"/><ellipse cx="1350.5" cy="589.6406" fill="#ADD1B2" rx="11" ry="11" style="stroke:#181818;stroke-width:1;"/><path d="M1353.4688,595.2813 Q1352.8906,595.5781 1352.25,595.7188 Q1351.6094,595.875 1350.9063,595.875 Q1348.4063,595.875 1347.0781,594.2344 Q1345.7656,592.5781 1345.7656,589.4531 Q1345.7656,586.3281 1347.0781,584.6719 Q1348.4063,583.0156 1350.9063,583.0156 Q1351.6094,583.0156 1352.25,583.1719 Q1352.9063,583.3281 1353.4688,583.625 L1353.4688,586.3438 Q1352.8438,585.7656 1352.25,585.5 Q1351.6563,585.2188 1351.0313,585.2188 Q1349.6875,585.2188 1349,586.2969 Q1348.3125,587.3594 1348.3125,589.4531 Q1348.3125,591.5469 1349,592.625 Q1349.6875,593.6875 1351.0313,593.6875 Q1351.6563,593.6875 1352.25,593.4219 Q1352.8438,593.1406 1353.4688,592.5625 L1353.4688,595.2813 Z " fill="#000000"/><text fill="#000000" font-family="'Segoe UI'" font-size="14" lengthAdjust="spacing" textLength="109.1631" x="1364.5" y="594.4873">SettingsService</text><line style="stroke:#2C3E50;stroke-width:0.5;" x1="1336.5" x2="1475.6631" y1="605.6406" y2="605.6406"/><text fill="#000000" font-family="'Segoe UI'" font-size="14" font-weight="bold" lengthAdjust="spacing" textLength="124.2842" x="1341.5" y="622.6357">SettingsService</text><line style="stroke:#2C3E50;stroke-width:1;" x1="1336.5" x2="1475.6631" y1="629.9375" y2="629.9375"/><text fill="#000000" font-family="'Segoe UI'" font-size="14" lengthAdjust="spacing" textLength="128.8096" x="1341.5" y="646.9326">+get(key, default)</text><text fill="#000000" font-family="'Segoe UI'" font-size="14" lengthAdjust="spacing" textLength="116.1973" x="1341.5" y="663.2295">+set(key, value)</text></g><!--class HistoryService--><g class="entity" data-entity="HistoryService" data-source-line="107" data-uid="ent0014" id="entity_HistoryService"><rect fill="#FFFFFF" height="96.8906" rx="7.5" ry="7.5" style="stroke:#2C3E50;stroke-width:0.5;" width="137.4531" x="1536.5" y="573.6406"/><rect fill="#ECF0F1" height="32" rx="7.5" ry="7.5" style="stroke:#ECF0F1;stroke-width:0.5;" width="137.4531" x="1536.5" y="573.6406"/><rect fill="#ECF0F1" height="7.5" style="stroke:#ECF0F1;stroke-width:0.5;" width="137.4531" x="1536.5" y="598.1406"/><rect fill="none" height="96.8906" rx="7.5" ry="7.5" style="stroke:#2C3E50;stroke-width:0.5;" width="137.4531" x="1536.5" y="573.6406"/><ellipse cx="1553.2574" cy="589.6406" fill="#ADD1B2" rx="11" ry="11" style="stroke:#181818;stroke-width:1;"/><path d="M1556.2261,595.2813 Q1555.648,595.5781 1555.0074,595.7188 Q1554.3667,595.875 1553.6636,595.875 Q1551.1636,595.875 1549.8355,594.2344 Q1548.523,592.5781 1548.523,589.4531 Q1548.523,586.3281 1549.8355,584.6719 Q1551.1636,583.0156 1553.6636,583.0156 Q1554.3667,583.0156 1555.0074,583.1719 Q1555.6636,583.3281 1556.2261,583.625 L1556.2261,586.3438 Q1555.6011,585.7656 1555.0074,585.5 Q1554.4136,585.2188 1553.7886,585.2188 Q1552.4449,585.2188 1551.7574,586.2969 Q1551.0699,587.3594 1551.0699,589.4531 Q1551.0699,591.5469 1551.7574,592.625 Q1552.4449,593.6875 1553.7886,593.6875 Q1554.4136,593.6875 1555.0074,593.4219 Q1555.6011,593.1406 1556.2261,592.5625 L1556.2261,595.2813 Z " fill="#000000"/><text fill="#000000" font-family="'Segoe UI'" font-size="14" lengthAdjust="spacing" textLength="101.5479" x="1567.6479" y="594.4873">HistoryService</text><line style="stroke:#2C3E50;stroke-width:0.5;" x1="1537.5" x2="1672.9531" y1="605.6406" y2="605.6406"/><text fill="#000000" font-family="'Segoe UI'" font-size="14" font-weight="bold" lengthAdjust="spacing" textLength="115.3906" x="1542.5" y="622.6357">HistoryService</text><line style="stroke:#2C3E50;stroke-width:1;" x1="1537.5" x2="1672.9531" y1="629.9375" y2="629.9375"/><text fill="#000000" font-family="'Segoe UI'" font-size="14" lengthAdjust="spacing" textLength="91.8477" x="1542.5" y="646.9326">+add(config)</text><text fill="#000000" font-family="'Segoe UI'" font-size="14" lengthAdjust="spacing" textLength="125.4531" x="1542.5" y="663.2295">+getRecent(limit)</text></g><!--class FileService--><g class="entity" data-entity="FileService" data-source-line="114" data-uid="ent0015" id="entity_FileService"><rect fill="#FFFFFF" height="80.5938" rx="7.5" ry="7.5" style="stroke:#2C3E50;stroke-width:0.5;" width="195.6064" x="1734" y="581.6406"/><rect fill="#ECF0F1" height="32" rx="7.5" ry="7.5" style="stroke:#ECF0F1;stroke-width:0.5;" width="195.6064" x="1734" y="581.6406"/><rect fill="#ECF0F1" height="7.5" style="stroke:#ECF0F1;stroke-width:0.5;" width="195.6064" x="1734" y="606.1406"/><rect fill="none" height="80.5938" rx="7.5" ry="7.5" style="stroke:#2C3E50;stroke-width:0.5;" width="195.6064" x="1734" y="581.6406"/><ellipse cx="1789.46" cy="597.6406" fill="#ADD1B2" rx="11" ry="11" style="stroke:#181818;stroke-width:1;"/><path d="M1792.4287,603.2813 Q1791.8506,603.5781 1791.21,603.7188 Q1790.5693,603.875 1789.8662,603.875 Q1787.3662,603.875 1786.0381,602.2344 Q1784.7256,600.5781 1784.7256,597.4531 Q1784.7256,594.3281 1786.0381,592.6719 Q1787.3662,591.0156 1789.8662,591.0156 Q1790.5693,591.0156 1791.21,591.1719 Q1791.8662,591.3281 1792.4287,591.625 L1792.4287,594.3438 Q1791.8037,593.7656 1791.21,593.5 Q1790.6162,593.2188 1789.9912,593.2188 Q1788.6475,593.2188 1787.96,594.2969 Q1787.2725,595.3594 1787.2725,597.4531 Q1787.2725,599.5469 1787.96,600.625 Q1788.6475,601.6875 1789.9912,601.6875 Q1790.6162,601.6875 1791.21,601.4219 Q1791.8037,601.1406 1792.4287,600.5625 L1792.4287,603.2813 Z " fill="#000000"/><text fill="#000000" font-family="'Segoe UI'" font-size="14" lengthAdjust="spacing" textLength="76.1865" x="1809.96" y="602.4873">FileService</text><line style="stroke:#2C3E50;stroke-width:0.5;" x1="1735" x2="1928.6064" y1="613.6406" y2="613.6406"/><text fill="#000000" font-family="'Segoe UI'" font-size="14" font-weight="bold" lengthAdjust="spacing" textLength="86.8574" x="1740" y="630.6357">FileService</text><line style="stroke:#2C3E50;stroke-width:1;" x1="1735" x2="1928.6064" y1="637.9375" y2="637.9375"/><text fill="#000000" font-family="'Segoe UI'" font-size="14" lengthAdjust="spacing" text-decoration="underline" textLength="183.6064" x="1740" y="654.9326">+saveImage(image, path)</text></g><g class="entity" data-entity="GMN36" data-source-line="176" data-uid="ent0037" id="entity_GMN36"><path d="M1986.5,400.1406 L1986.5,408.6406 L1274.52,412.6406 L1986.5,416.6406 L1986.5,425.4063 A7.5,7.5 0 0 0 1994,432.9063 L2133.5293,432.9063 A7.5,7.5 0 0 0 2141.0293,425.4063 L2141.0293,402.6406 L2131.0293,392.6406 L1994,392.6406 A7.5,7.5 0 0 0 1986.5,400.1406" fill="#FDEDEC" style="stroke:#E74C3C;stroke-width:0.5;"/><path d="M2131.0293,392.6406 L2131.0293,398.8906 A3.75,3.75 0 0 0 2134.7793,402.6406 L2141.0293,402.6406 L2131.0293,392.6406" fill="#FDEDEC" style="stroke:#E74C3C;stroke-width:0.5;"/><text fill="#C0392B" font-family="'Segoe UI'" font-size="13" font-weight="bold" lengthAdjust="spacing" textLength="65.8442" x="1992.5" y="409.7075">Mediator</text><text fill="#C0392B" font-family="'Segoe UI'" font-size="13" lengthAdjust="spacing" textLength="133.5293" x="1992.5" y="424.8403">Connects UI to Logic</text></g><!--reverse link QRGeneratorView to InputPanel--><g class="link" data-entity-1="QRGeneratorView" data-entity-2="InputPanel" data-source-line="141" data-uid="lnk19" id="link_QRGeneratorView_InputPanel"><path codeLine="141" d="M426.77,190.6406 C290.05,190.6406 110,190.6406 110,190.6406 C110,190.6406 110,294.3806 110,360.0306" fill="none" id="QRGeneratorView-backto-InputPanel" style="stroke:#2C3E50;stroke-width:1;"/><polygon fill="#2C3E50" points="438.77,190.6406,432.77,186.6406,426.77,190.6406,432.77,194.6406,438.77,190.6406" style="stroke:#2C3E50;stroke-width:1;"/></g><!--reverse link QRGeneratorView to SettingsPanel--><g class="link" data-entity-1="QRGeneratorView" data-entity-2="SettingsPanel" data-source-line="142" data-uid="lnk20" id="link_QRGeneratorView_SettingsPanel"><path codeLine="142" d="M457,271.6706 C457,304.0006 457,329.9006 457,359.8806" fill="none" id="QRGeneratorView-backto-SettingsPanel" style="stroke:#2C3E50;stroke-width:1;"/><polygon fill="#2C3E50" points="457,259.6706,453,265.6706,457,271.6706,461,265.6706,457,259.6706" style="stroke:#2C3E50;stroke-width:1;"/></g><!--reverse link QRGeneratorView to PreviewPanel--><g class="link" data-entity-1="QRGeneratorView" data-entity-2="PreviewPanel" data-source-line="143" data-uid="lnk21" id="link_QRGeneratorView_PreviewPanel"><path codeLine="143" d="M578.25,271.6706 C578.25,304.0006 578.25,329.9006 578.25,359.8806" fill="none" id="QRGeneratorView-backto-PreviewPanel" style="stroke:#2C3E50;stroke-width:1;"/><polygon fill="#2C3E50" points="578.25,259.6706,574.25,265.6706,578.25,271.6706,582.25,265.6706,578.25,259.6706" style="stroke:#2C3E50;stroke-width:1;"/></g><!--link QRGeneratorView to QRGeneratorController--><g class="link" data-entity-1="QRGeneratorView" data-entity-2="QRGeneratorController" data-source-line="146" data-uid="lnk22" id="link_QRGeneratorView_QRGeneratorController"><path codeLine="146" d="M663.75,259.9706 C663.75,301.6406 663.75,346.6406 663.75,346.6406 C663.75,346.6406 878.8,346.6406 1023.42,346.6406" fill="none" id="QRGeneratorView-to-QRGeneratorController" style="stroke:#2C3E50;stroke-width:1;"/><polygon fill="#2C3E50" points="1029.42,346.6406,1020.42,342.6406,1024.42,346.6406,1020.42,350.6406,1029.42,346.6406" style="stroke:#2C3E50;stroke-width:1;"/><text fill="#000000" font-family="'Segoe UI'" font-size="13" lengthAdjust="spacing" textLength="43.7988" x="759.25" y="342.7075">events</text></g><!--link QRGeneratorView to QRGeneratorController--><!--link QRGeneratorController to QRGeneratorModel--><g class="link" data-entity-1="QRGeneratorController" data-entity-2="QRGeneratorModel" data-source-line="147" data-uid="lnk23" id="link_QRGeneratorController_QRGeneratorModel"><path codeLine="147" d="M1036.83,486.0806 C1036.83,526.9406 1036.83,569.6406 1036.83,569.6406 C1036.83,569.6406 1036.37,569.6406 1026.52,569.6406" fill="none" id="QRGeneratorController-to-QRGeneratorModel" style="stroke:#2C3E50;stroke-width:1;"/><polygon fill="#2C3E50" points="1020.52,569.6406,1029.52,573.6406,1025.52,569.6406,1029.52,565.6406,1020.52,569.6406" style="stroke:#2C3E50;stroke-width:1;"/><text fill="#000000" font-family="'Segoe UI'" font-size="13" lengthAdjust="spacing" textLength="52.5776" x="983.83" y="532.0875">updates</text></g><!--link QRGeneratorController to QRGenerator--><g class="link" data-entity-1="QRGeneratorController" data-entity-2="QRGenerator" data-source-line="150" data-uid="lnk24" id="link_QRGeneratorController_QRGenerator"><path codeLine="150" d="M1177.75,485.9106 C1177.75,514.9406 1177.75,541.5206 1177.75,567.5406" fill="none" id="QRGeneratorController-to-QRGenerator" style="stroke:#2C3E50;stroke-width:1;stroke-dasharray:7,7;"/><polygon fill="#2C3E50" points="1177.75,573.5406,1181.75,564.5406,1177.75,568.5406,1173.75,564.5406,1177.75,573.5406" style="stroke:#2C3E50;stroke-width:1;"/><text fill="#000000" font-family="'Segoe UI'" font-size="13" lengthAdjust="spacing" textLength="29.7832" x="1147.75" y="525.7975">uses</text></g><!--link QRGeneratorModel to QRConfig--><g class="link" data-entity-1="QRGeneratorModel" data-entity-2="QRConfig" data-source-line="151" data-uid="lnk25" id="link_QRGeneratorModel_QRConfig"><path codeLine="151" d="M900.17,690.7406 C900.17,715.8806 900.17,727.4006 900.17,752.5406" fill="none" id="QRGeneratorModel-QRConfig" style="stroke:#2C3E50;stroke-width:1;"/><polygon fill="none" points="900.17,678.7406,896.17,684.7406,900.17,690.7406,904.17,684.7406,900.17,678.7406" style="stroke:#2C3E50;stroke-width:1;"/><polygon fill="#2C3E50" points="900.17,758.5406,904.17,749.5406,900.17,753.5406,896.17,749.5406,900.17,758.5406" style="stroke:#2C3E50;stroke-width:1;"/><text fill="#000000" font-family="'Segoe UI'" font-size="13" lengthAdjust="spacing" textLength="34.8296" x="865.17" y="714.7075">holds</text></g><!--link QRGeneratorController to SettingsService--><g class="link" data-entity-1="QRGeneratorController" data-entity-2="SettingsService" data-source-line="154" data-uid="lnk26" id="link_QRGeneratorController_SettingsService"><path codeLine="154" d="M1286.52,464.6406 C1360.86,464.6406 1429.5,464.6406 1429.5,464.6406 C1429.5,464.6406 1429.5,521.3206 1429.5,567.6006" fill="none" id="QRGeneratorController-SettingsService" style="stroke:#2C3E50;stroke-width:1;"/><polygon fill="none" points="1274.52,464.6406,1280.52,468.6406,1286.52,464.6406,1280.52,460.6406,1274.52,464.6406" style="stroke:#2C3E50;stroke-width:1;"/><polygon fill="#2C3E50" points="1429.5,573.6006,1433.5,564.6006,1429.5,568.6006,1425.5,564.6006,1429.5,573.6006" style="stroke:#2C3E50;stroke-width:1;"/></g><!--link QRGeneratorController to SettingsService--><!--link QRGeneratorController to HistoryService--><g class="link" data-entity-1="QRGeneratorController" data-entity-2="HistoryService" data-source-line="155" data-uid="lnk27" id="link_QRGeneratorController_HistoryService"><path codeLine="155" d="M1286.59,454.6406 C1420.75,454.6406 1605,454.6406 1605,454.6406 C1605,454.6406 1605,517.8006 1605,567.2406" fill="none" id="QRGeneratorController-HistoryService" style="stroke:#2C3E50;stroke-width:1;"/><polygon fill="none" points="1274.59,454.6406,1280.59,458.6406,1286.59,454.6406,1280.59,450.6406,1274.59,454.6406" style="stroke:#2C3E50;stroke-width:1;"/><polygon fill="#2C3E50" points="1605,573.2406,1609,564.2406,1605,568.2406,1601,564.2406,1605,573.2406" style="stroke:#2C3E50;stroke-width:1;"/></g><!--link QRGeneratorController to FileService--><g class="link" data-entity-1="QRGeneratorController" data-entity-2="FileService" data-source-line="156" data-uid="lnk28" id="link_QRGeneratorController_FileService"><path codeLine="156" d="M1274.75,443.6406 C1470.62,443.6406 1832,443.6406 1832,443.6406 C1832,443.6406 1832,522.9706 1832,575.6406" fill="none" id="QRGeneratorController-to-FileService" style="stroke:#2C3E50;stroke-width:1;stroke-dasharray:7,7;"/><polygon fill="#2C3E50" points="1832,581.6406,1836,572.6406,1832,576.6406,1828,572.6406,1832,581.6406" style="stroke:#2C3E50;stroke-width:1;"/></g><!--link QRConfig to QRType--><g class="link" data-entity-1="QRConfig" data-entity-2="QRType" data-source-line="159" data-uid="lnk29" id="link_QRConfig_QRType"><path codeLine="159" d="M1003.97,834.6406 C1024.06,834.6406 1027.45,834.6406 1045.5,834.6406" fill="none" id="QRConfig-QRType" style="stroke:#2C3E50;stroke-width:1;"/><polygon fill="#2C3E50" points="991.97,834.6406,997.97,838.6406,1003.97,834.6406,997.97,830.6406,991.97,834.6406" style="stroke:#2C3E50;stroke-width:1;"/><polygon fill="#2C3E50" points="1051.5,834.6406,1042.5,830.6406,1046.5,834.6406,1042.5,838.6406,1051.5,834.6406" style="stroke:#2C3E50;stroke-width:1;"/></g><!--link QRGeneratorController to QRConfig--><!--link SettingsService to HistoryService--><!--link HistoryService to FileService--><!--link FileService to QRConfig--><!--SRC=[ZLTjRziu3FwUNw5BWPkxQxA-hbrH56WSUmtGhbtIRWSS3e5gguvGHyf9SeDks7y_Ih8T-QrhFYGEIL4FoKUa_0uD1WCqKoyfGJvdZpJ915QKCotloIVALbZW9Kef8-fbHH0NQi4T1UCnaMI5FkuwGe7PanQUkC8enL9UA2NeGwR89E9iHdyGv9h81Oxv6YcH4KUwmj4JJeW5AKYaC4jIrq3mZCKH5um8j7VaA1QOnMj1bI8CFU9KkejYyeYpL8MSgIzuIL1_HX9EqFsat-kzCrdnUSe5kiKf0GSc7t_08aW46Cr7dz5MC0gFmb55UZCT1rEqjH-SVFJtIer_CmtiYa_XSH3MvCMQuui0ibZePi7qsyItoy8W_1GSDrNvod3FFzpTUBs-6GTNTjrXu8V7TKM-wYGuFBmOz-eLGZzx23uZI7fY4clJy7r15J6Q2o7usWgtzls3u6ZNBk0Y9g8floGOv7LtMm1iDzph_UfLk0HvRjz-Anm7uy1lxXGS7_e7LgvBcKlztODF-oFjtPRorbBe5DqAO2jJbk9N-0KOuzrFjarrSvwXlXJHCAFzei0vf0OX7HndP_UJy_EoxjhSVDcCVfr-9i1DhBZuHiaQvTRMhVwSFPpNRCu-F9oNQi1MFFw5vdFAg9hFFJX0Il0q9M87IQ0ePOcS4V5C8xBjs6Uh62i2SJ-3Muyk0RYhJeYQi5McnbXXR_iKnJHIZTKpI5WclIMHibmEkTr4Q5pSOaRIrk0swkwu04W7XYWbM7WjkyxogBithbYykdTXsPa3K-THfXHddkw4EoZIaXPOUQwxKRa6tQ3ijXDTi6RPv8AlhpYE0NAPcIRRHvc4Sm-GhdX2euBlFXUaXV7GG4c_Q54vu0P__P9qdVJTcBo1n4iO7-ch_4siN_Are42U0FnS5qLyzNB7_PIk7ZWMiQCReFapJgd9fwQY1qyO2lt0UTgidnFBjORN6QdHTWSPPK8GtPBqM3q5j_R9iVXFcFAU8lFZHaVoPVgKmy_sgoWx0NPZ-obr3un-bUajDgfZ6MnCvt1Cvh70Qo8ygOTnD_7oEahq9zA7kaascHlqY-5M8ToiIeVsCvqhNptLtXDvsIb6_NOrmLO7lCZQEjebbP30brO4LLqt01p7bVgLiAOa0c9uALrILUnTcnaXJKdhvexY3UNLnyHf8JimkzJ2gLkZ0mpDYJHrCPU7MYEmhAmJpafVEGdG4Y3WKoILgD3_3XgfFXdwrwsEPfUMcpkVMnp2icLkxu2u2_w-A__SJw_Av- -JS5B-2Qul9bTroav9QYu3Sa5N4dbX2lTF_eZo9cRR99Zk3U5w1_TaaKKg4mHv5qaYI6AMRlVg0_uzEDxCl5PrPJArMhXJGaFO7w9hJ1dSlo9z5xCu35vlpDTi3IrFDg4Cu4BD1kSTFVmKzSapL4RsU-q6BSjjJuILTa19Sry-628zLl910muO0DHfxV0xr7w75R_6fIHLA7Ople6H4n1i5poDxUQ7mwBXl67dqbUjZ_pEl7heVnEMSqWrm2CedGbaJ5Q4nOH5b6XyUJ3l1u8c2sNYCoSXvoRCQvufs1aAXBnB6iDAyoOcaU9m51wvW91JFTMbPUexk0Hh6N3L3dlym9z9NXejQFBZduNn-wy9ivqclTBlnb7kkMZq7qnyNJclRVAsp3UGvUEp1BFWWlu0Umm4qJTnS8cmWg4ETxHbhpv3IdSsr_LwrlfztTejgDkQwtOkIbt2B_1A8qrfpCkDiTBzfJtFUKEz9Z6jZE-SrLBN5Ifl3baFY6JUcFu7]--></g></svg>